<?xml version="1.0" encoding="UTF-8" standalone="no"?>
<svg width="28px" height="35px" viewBox="0 0 28 35" version="1.1" xmlns="http://www.w3.org/2000/svg" xmlns:xlink="http://www.w3.org/1999/xlink">
    <!-- Generator: Sketch 46 (44423) - http://www.bohemiancoding.com/sketch -->
    <title>icons8-Call</title>
    <desc>Created with Sketch.</desc>
    <defs></defs>
    <g id="Page-1" stroke="none" stroke-width="1" fill="none" fill-rule="evenodd">
        <g id="Desktop-" transform="translate(-686.000000, -1546.000000)" fill-rule="nonzero" fill="#4A4A4A">
            <g id="Group-3" transform="translate(682.000000, 1542.000000)">
                <g id="icons8-Call" transform="translate(18.943406, 21.197399) rotate(-80.000000) translate(-18.943406, -21.197399) translate(2.443406, 5.697399)">
                    <path d="M9.81372443,27.268725 C11.4820515,25.27952 12.4958436,23.2551519 10.8275165,21.2910627 L9.82356769,20.115624 C9.09029165,19.2566488 5.67489644,17.6592575 12.6385615,11.4856884 C19.5874623,5.31212048 20.6701522,8.98411295 21.3935863,9.8481111 L22.4024561,11.028574 C24.0707832,12.982616 26.1721849,12.2441987 28.3375648,10.8326671 L29.646636,9.98373904 C31.8021725,8.56718329 33.2195121,7.02504673 31.5561073,5.06095887 L30.6456638,4.00607676 C30.0304981,3.13705568 28.0176794,0.715850915 24.1987368,0.128131563 C19.6169896,-0.580145671 14.3659444,1.65017514 8.60800187,6.76383798 C2.84513836,11.867455 -0.0485965274,16.8655841 0.000617280965,21.6025046 C0.0449088266,25.5357058 2.11186232,27.9117004 2.86482363,28.6551407 L3.77526838,29.7200686 C5.43867318,31.6741106 7.13652752,30.458486 8.80485458,28.4692809 L9.81372443,27.268725 Z" id="Shape"></path>
                </g>
            </g>
        </g>
    </g>
</svg>